<svg width="40" height="40" viewBox="0 0 40 40" fill="none" xmlns="http://www.w3.org/2000/svg">
<path d="M22.3925 37.0075H11.3048C6.66767 37.0075 2.90625 33.2495 2.90625 28.609V11.3912C2.90625 6.7541 6.66422 2.99268 11.3048 2.99268H24.8163C23.3096 3.14093 21.8513 3.46156 20.4515 3.96492C18.4622 4.68204 16.8452 5.76116 15.6006 7.19885C14.356 8.63653 13.732 10.3604 13.732 12.3738C13.732 14.5286 14.2595 16.28 15.3145 17.6177C16.366 18.9589 17.6382 19.9656 19.1241 20.6345C20.6066 21.3068 22.5236 21.9756 24.8714 22.6479C26.7883 23.2237 28.2846 23.727 29.3638 24.158C30.4394 24.589 31.3393 25.1889 32.0598 25.9542C32.777 26.7196 33.1355 27.7022 33.1355 28.8986C33.1355 30.6707 32.5011 32.0497 31.2324 33.0289C29.9637 34.0115 28.2019 34.501 25.9506 34.501C23.4579 34.501 21.5548 34.0804 20.2377 33.2426C18.9207 32.4049 18.2622 31.2671 18.2622 29.8294C18.2622 28.7779 18.538 27.9608 19.0897 27.385C19.6413 26.8093 19.9171 26.499 19.9171 26.4507C19.9171 26.2128 19.6172 25.8749 19.0173 25.444C18.4174 25.013 17.7347 24.7958 16.9693 24.7958C15.6282 24.7958 14.5387 25.2268 13.7009 26.0887C12.8632 26.9506 12.4425 28.078 12.4425 29.4674C12.4425 31.9118 13.6389 33.8046 16.035 35.1423C17.7727 36.1249 19.8964 36.7386 22.3925 37.0075Z" fill="#FA865F"/>
<path d="M28.8399 0H11.1567C5.00603 0 0 5.00603 0 11.1567V28.8399C0 34.994 5.00603 39.9966 11.1567 39.9966H28.8399C34.994 39.9966 40 34.9905 40 28.8399V11.1567C40 5.00603 34.994 0 28.8399 0ZM39.045 28.8399C39.045 34.4734 34.4768 39.0415 28.8433 39.0415H11.1567C5.52319 39.0415 0.955008 34.4734 0.955008 28.8399V11.1567C0.955008 5.52319 5.52319 0.955008 11.1567 0.955008H28.8399C31.2429 0.955008 33.4494 1.79279 35.1939 3.18911C37.1798 5.10602 38.4899 8.31926 37.0074 11.5359C36.8109 12.0772 36.5178 12.5737 36.1283 13.0219C35.3387 13.9321 34.2941 14.3872 33.0012 14.3872C32.2324 14.3872 31.5532 14.17 30.9533 13.739C30.3534 13.3081 30.0534 12.9736 30.0534 12.7323C30.0534 12.684 30.2465 12.4944 30.6292 12.1565C31.0119 11.8221 31.3601 11.4256 31.6739 10.9705C31.9841 10.5154 32.1427 9.97759 32.1427 9.35356C32.0462 8.06068 31.398 7.05396 30.2017 6.33684C29.0019 5.61972 27.5884 5.25771 25.961 5.25771C24.1407 5.25771 22.5478 5.67833 21.1826 6.51612C19.8173 7.3539 19.1346 8.51577 19.1346 10.0017C19.1346 11.3429 19.4208 12.4082 19.9966 13.1977C20.5723 13.9872 21.4342 14.6251 22.5823 15.1008C23.7304 15.5801 25.5508 16.2282 28.0434 17.0419C30.5809 17.8555 32.5702 18.6106 34.0079 19.307C35.2284 19.8966 36.2179 20.6689 37.0074 21.6032C37.0178 21.617 37.0281 21.6273 37.0384 21.6411C38.3761 23.2512 39.045 25.3094 39.045 27.4022V28.8399Z" fill="#FA865F"/>
</svg>
